PathFileType	4	(X/Y/Z)	OpenSim_Sub08_CSStiffKnee_Magnet.trc
DataRate	CameraRate	NumFrames	NumMarkers	Units	OrigDataRate	OrigDataStartFrame	OrigNumFrames
100	100	36	8	m	100	4622	5282
Frame#	Time	torso_imu_offset_imu	pelvis_imu_offset_imu	tibia_r_imu_offset_imu	femur_r_imu_offset_imu	tibia_l_imu_offset_imu	femur_l_imu_offset_imu	toes_r_imu_offset_imu	toes_l_imu_offset_imu
				X1	Y1	Z1	X2	Y2	Z2	X3	Y3	Z3	X4	Y4	Z4	X5	Y5	Z5	X6	Y6	Z6	X7	Y7	Z7	X8		Y8	Z8	

4622	46.21000000	-0.92410119	-0.14187773	0.19025687	-0.60800814	0.24698767	-0.70589980	-0.76424909	-0.38293567	-0.09953044	-0.83401414	-0.21534920	-0.14390422	-0.55319179	0.48045886	0.42141205	-0.50728320	0.07717067	0.44884314	-0.49349710	-0.16933447	-0.60927909	-0.79487375	-0.16694386	-0.29891729
4623	46.22000000	-0.92557480	-0.14657323	0.19395229	-0.61314983	0.24999712	-0.70851262	-0.76671613	-0.37163858	-0.10291595	-0.83618863	-0.21599625	-0.14232847	-0.54826885	0.48583565	0.42257556	-0.50059690	0.07839156	0.44569692	-0.48551736	-0.16148864	-0.61151795	-0.79235223	-0.17455375	-0.29407724
4624	46.23000000	-0.92364663	-0.14627999	0.19598473	-0.61410665	0.24609385	-0.71096474	-0.76953263	-0.35487465	-0.10450002	-0.83563598	-0.21287103	-0.14255516	-0.54551145	0.49370915	0.42045046	-0.50272182	0.09034185	0.44518844	-0.48936245	-0.15102061	-0.61606701	-0.79166807	-0.17003039	-0.29589225
4625	46.24000000	-0.92411857	-0.14303207	0.19734165	-0.61075257	0.24020561	-0.71117906	-0.77844296	-0.34835734	-0.10396173	-0.83716706	-0.20638525	-0.14368150	-0.54184021	0.49626786	0.41957997	-0.50804808	0.09036155	0.44996946	-0.48739247	-0.13945881	-0.62077853	-0.78972485	-0.16952633	-0.29176326
4626	46.25000000	-0.93194258	-0.14517910	0.19555740	-0.61039381	0.23720547	-0.70646665	-0.78393127	-0.33980036	-0.09946482	-0.83861326	-0.20530246	-0.13947021	-0.53242719	0.50620504	0.41703768	-0.50201087	0.09313207	0.45039697	-0.48019705	-0.12927928	-0.62344513	-0.78469454	-0.16947203	-0.28681069
4627	46.26000000	-0.92974574	-0.14560602	0.19624136	-0.60734094	0.23608090	-0.71277233	-0.78673008	-0.32979410	-0.10136000	-0.83740014	-0.20287580	-0.13559667	-0.52998766	0.51553299	0.41944033	-0.49709042	0.09548981	0.45077442	-0.47661609	-0.12027933	-0.62860333	-0.78051173	-0.16991854	-0.29167634
4628	46.27000000	-0.92518610	-0.14791543	0.19571667	-0.60751982	0.23741505	-0.71804841	-0.79201905	-0.32249801	-0.10648354	-0.83546619	-0.20121235	-0.13540448	-0.52306842	0.52019411	0.42183250	-0.49830355	0.10385784	0.44786099	-0.47436084	-0.11744614	-0.63682843	-0.78237565	-0.16763743	-0.28851968
4629	46.28000000	-0.92746297	-0.15045677	0.19743659	-0.60982666	0.23189076	-0.71007778	-0.79372949	-0.31109199	-0.10441820	-0.83934960	-0.19759580	-0.13357739	-0.52114242	0.52600643	0.42029791	-0.49870648	0.11237085	0.44604437	-0.46697557	-0.11797199	-0.64167908	-0.77812854	-0.16340513	-0.28391979
4630	46.29000000	-0.92746188	-0.15058423	0.19712334	-0.61232392	0.22811741	-0.71162783	-0.79673588	-0.30276329	-0.10477852	-0.83731740	-0.19614871	-0.13573770	-0.51559266	0.53105418	0.42337349	-0.49676863	0.11429350	0.44948102	-0.46248702	-0.11031016	-0.64582013	-0.77527730	-0.16393805	-0.28640227
4631	46.30000000	-0.92491463	-0.14753305	0.19693105	-0.61070855	0.22380174	-0.71898264	-0.79706624	-0.29725136	-0.11431497	-0.83552103	-0.19926773	-0.13441594	-0.50749157	0.53855821	0.41599325	-0.49197224	0.11920588	0.44960680	-0.45773547	-0.10436037	-0.65028441	-0.77859902	-0.16548941	-0.28625951
4632	46.31000000	-0.92341485	-0.14752683	0.19801347	-0.60078638	0.21993763	-0.71938688	-0.79353142	-0.29588965	-0.11377309	-0.83185910	-0.19937660	-0.13052190	-0.50058406	0.54963721	0.41469749	-0.49542504	0.12400072	0.45280742	-0.45760858	-0.09849885	-0.65364650	-0.78000538	-0.16424632	-0.28434809
4633	46.32000000	-0.92564471	-0.15060289	0.19305207	-0.60669132	0.21453498	-0.71685399	-0.79723970	-0.28692190	-0.10771603	-0.83713481	-0.19582210	-0.13493719	-0.49087370	0.55576905	0.41679316	-0.49156658	0.13314448	0.45220678	-0.45694721	-0.09124323	-0.65453097	-0.77838134	-0.15393593	-0.28667465
4634	46.33000000	-0.92304655	-0.15063260	0.19371774	-0.60865060	0.20906509	-0.71998831	-0.79943076	-0.28179748	-0.10880429	-0.83663216	-0.19903750	-0.13304233	-0.49218863	0.56026395	0.41266688	-0.48600149	0.13654435	0.45098183	-0.45428735	-0.09051337	-0.65446888	-0.78652212	-0.15302420	-0.29261692
4635	46.34000000	-0.92593058	-0.15387935	0.19616872	-0.60613828	0.21220731	-0.72231429	-0.79992950	-0.27979943	-0.10394705	-0.83364168	-0.20141754	-0.12918860	-0.48858303	0.57021203	0.41303820	-0.48792244	0.14123624	0.44946427	-0.45371515	-0.08698705	-0.65410753	-0.78683442	-0.15269802	-0.28449628
4636	46.35000000	-0.92868251	-0.15227788	0.19159065	-0.60916027	0.20220907	-0.72342678	-0.80288387	-0.27378016	-0.10492502	-0.83466049	-0.20796721	-0.12583826	-0.48332037	0.57756029	0.41223220	-0.48561987	0.15187468	0.45040985	-0.45253006	-0.08375443	-0.65588977	-0.78559156	-0.14722474	-0.27987672
4637	46.36000000	-0.92742362	-0.15006350	0.18782908	-0.61029564	0.19679168	-0.72254045	-0.80316989	-0.27650868	-0.11316302	-0.83183662	-0.20953976	-0.12185337	-0.47575060	0.58463680	0.41187938	-0.48210347	0.15473893	0.44729057	-0.45222773	-0.08214350	-0.65516663	-0.79266121	-0.14390103	-0.27965122
4638	46.37000000	-0.93147689	-0.14858836	0.18038492	-0.60804455	0.19748146	-0.72415002	-0.80526620	-0.27594700	-0.10920042	-0.82948040	-0.20875638	-0.12020839	-0.46521033	0.59570526	0.40341502	-0.48003801	0.16035324	0.44576236	-0.45492740	-0.07912559	-0.65682632	-0.79870759	-0.13550877	-0.26933602
4639	46.38000000	-0.92809007	-0.15038692	0.18261298	-0.60349167	0.19266323	-0.72454832	-0.80236482	-0.27598394	-0.10497342	-0.82976464	-0.21108036	-0.11655108	-0.45741344	0.60328290	0.39542066	-0.47939663	0.16823400	0.44766875	-0.45703616	-0.08115153	-0.65670823	-0.80297517	-0.12778677	-0.26617520
4640	46.39000000	-0.92549783	-0.14976670	0.17989328	-0.61199051	0.19327336	-0.72006418	-0.80015638	-0.28399600	-0.09926376	-0.83046504	-0.20833493	-0.11976292	-0.45400492	0.60902302	0.40095045	-0.47887010	0.17598878	0.43916089	-0.45838483	-0.08186328	-0.64886565	-0.80927612	-0.12190029	-0.26160691
4641	46.40000000	-0.92686224	-0.15096790	0.17566427	-0.61175552	0.18774784	-0.71749159	-0.79803564	-0.28770745	-0.09870965	-0.82682981	-0.21174430	-0.11515247	-0.44845812	0.61889128	0.39479002	-0.48363095	0.18222515	0.43939667	-0.46385028	-0.08358148	-0.64483203	-0.82213262	-0.11285333	-0.24797464
4642	46.41000000	-0.92933985	-0.15337446	0.17634802	-0.61087977	0.18467290	-0.71792232	-0.79481005	-0.29671022	-0.09839715	-0.82858409	-0.21226476	-0.11033268	-0.43508385	0.62586285	0.38503171	-0.48498083	0.18889124	0.43850641	-0.46474655	-0.08259081	-0.64363423	-0.83157702	-0.10344440	-0.23449904
4643	46.42000000	-0.92996863	-0.15545714	0.16960302	-0.61498440	0.18345429	-0.71718538	-0.79667918	-0.30694581	-0.09101699	-0.82413409	-0.21385293	-0.11508767	-0.42403098	0.64221557	0.38875313	-0.48290886	0.20170387	0.43368182	-0.47632714	-0.09374843	-0.63106531	-0.83630267	-0.09894908	-0.22174320
4644	46.43000000	-0.93110965	-0.15787146	0.16407039	-0.61763099	0.17812955	-0.71204092	-0.79554150	-0.31263467	-0.08615139	-0.82949982	-0.21995139	-0.11150889	-0.41670461	0.65332788	0.38185502	-0.48673375	0.20033801	0.42732068	-0.49572864	-0.11111062	-0.61429967	-0.84451366	-0.09304518	-0.20485316
4645	46.44000000	-0.93180627	-0.15833750	0.16151328	-0.62131012	0.17608027	-0.71287894	-0.78989331	-0.32490002	-0.07722658	-0.82777788	-0.22396850	-0.10699991	-0.40310783	0.65819791	0.37606265	-0.48608029	0.20202409	0.42472371	-0.50136069	-0.11524911	-0.60835953	-0.85503895	-0.08246060	-0.18479767
4646	46.45000000	-0.93495816	-0.16047016	0.16482147	-0.62243877	0.17644773	-0.71308481	-0.78786750	-0.33127613	-0.06960254	-0.82221816	-0.23335712	-0.10029284	-0.37888508	0.67005610	0.36938713	-0.48547960	0.20967562	0.42014086	-0.51106824	-0.12149596	-0.59575661	-0.85926255	-0.07296156	-0.16075543
4647	46.46000000	-0.94042321	-0.16368222	0.15896645	-0.62080553	0.17647780	-0.71111819	-0.78748843	-0.33064584	-0.06788576	-0.82112149	-0.24055378	-0.09564984	-0.36776049	0.68409908	0.35601294	-0.49003080	0.20744268	0.41397021	-0.52889010	-0.13122092	-0.57642617	-0.86941037	-0.06270505	-0.12777811
4648	46.47000000	-0.93906286	-0.16051020	0.14636434	-0.62016809	0.17599006	-0.71304219	-0.78453053	-0.33542938	-0.06107504	-0.81639076	-0.24629214	-0.09135631	-0.35713557	0.70124235	0.35347299	-0.49116494	0.21061491	0.40982016	-0.53758423	-0.14195247	-0.56219271	-0.88013799	-0.04847285	-0.09647174
4649	46.48000000	-0.94108347	-0.15121686	0.13722842	-0.61724124	0.17846034	-0.71405607	-0.78407508	-0.34158438	-0.05618969	-0.81764433	-0.25401377	-0.08427194	-0.33800497	0.70929476	0.34978511	-0.49678479	0.21224243	0.39776902	-0.54684587	-0.15082481	-0.55056597	-0.88204231	-0.03939453	-0.06613729
4650	46.49000000	-0.94205027	-0.14905000	0.13275321	-0.61054221	0.18222133	-0.71539968	-0.78006439	-0.34983908	-0.04656371	-0.81461505	-0.26011265	-0.08217631	-0.32084380	0.72189384	0.34195957	-0.49935475	0.20094263	0.39131525	-0.55606868	-0.15458979	-0.54151365	-0.88710376	-0.03180426	-0.02139484
4651	46.50000000	-0.94281447	-0.14836316	0.13211111	-0.61041919	0.19110496	-0.71612360	-0.77651234	-0.36877078	-0.03453497	-0.81211098	-0.26507388	-0.08174344	-0.29573322	0.73665663	0.33153861	-0.50240783	0.19547256	0.38889749	-0.55889781	-0.15678076	-0.53267807	-0.88549141	-0.02683943	0.03166191
4652	46.51000000	-0.94562598	-0.15355198	0.12337898	-0.61266879	0.20823422	-0.71347281	-0.77257612	-0.38253641	-0.02260291	-0.81249040	-0.26351419	-0.07708506	-0.27658633	0.74993553	0.31421401	-0.51338307	0.19569462	0.38384255	-0.56454323	-0.15676578	-0.52775508	-0.87381886	-0.03021000	0.09125158
4653	46.52000000	-0.94527235	-0.15710478	0.11457634	-0.61239990	0.21585578	-0.70537554	-0.76355368	-0.38935382	-0.01332726	-0.81317155	-0.26634824	-0.06926595	-0.25231033	0.76185964	0.30299299	-0.51614226	0.18340208	0.37294220	-0.56968078	-0.15561100	-0.52430036	-0.86209279	-0.03527343	0.15670702
4654	46.53000000	-0.94344851	-0.15619940	0.10703578	-0.61326975	0.21926652	-0.69442539	-0.75966414	-0.40065706	-0.00639180	-0.81595701	-0.26850586	-0.06461251	-0.22287034	0.77467566	0.27694615	-0.51943025	0.16752995	0.36294529	-0.57494864	-0.15560634	-0.51734862	-0.84541147	-0.03933003	0.21813896
4655	46.54000000	-0.94526937	-0.15733626	0.09991867	-0.61765698	0.22369850	-0.69343776	-0.75690162	-0.41082118	0.00648572	-0.81551603	-0.26949420	-0.06251274	-0.20136205	0.79159798	0.25456765	-0.52808435	0.15282512	0.36125229	-0.58023365	-0.15726762	-0.51205080	-0.82251507	-0.03818158	0.27853702
4656	46.55000000	-0.94487540	-0.16052944	0.09762665	-0.61794608	0.22010886	-0.69329243	-0.75698149	-0.41421797	0.00772993	-0.80735412	-0.27711510	-0.06061115	-0.17795084	0.80246268	0.24390626	-0.53943371	0.13541332	0.34982269	-0.58535025	-0.15007742	-0.50967594	-0.79766636	-0.02495366	0.33952684
4657	46.56000000	-0.94417304	-0.16541959	0.09432133	-0.61957606	0.22555007	-0.69461728	-0.75103341	-0.41667907	0.00470795	-0.80348723	-0.28836692	-0.06250354	-0.15494973	0.80872982	0.22109880	-0.54724104	0.11502933	0.33930993	-0.59173335	-0.14943583	-0.50536781	-0.77548700	-0.00159042	0.38993773
